<svg version="1.2" xmlns="http://www.w3.org/2000/svg" viewBox="0 0 256 251" width="256" height="251">
	<style>
		.s0 { fill: #00688f } 
		.s1 { fill: #000000 } 
	</style>
	<path class="s0" d="m220.85 65.96c-2.98-1.39-6.13-2.59-8.76-4.37-7.37-4.57-12.97-10.73-23.49-11.13-5.26-0.2-10.87 0.2-13.67 3.78-1.58-4.97-3.51-9.74-6.49-12.92-3.15-3.17-6.83-5.16-11.39-6.95-4.21-1.59-8.59-3.38-12.45-5.56-1.75-1.19-3.33-2.78-5.08-4.17-1.58-1.39-3.68-3.18-5.61-3.58-1.75-0.39-2.8 1.19-4.03 1.99-2.98 2.18-5.61 4.17-9.46 5.36-9.82 3.38-20.86 5.56-27.87 11.72-3.33 2.98-6.84 7.55-4.56 14.5-1.93-1.59-4.21-2.98-6.84-3.37-2.98-0.6-6.13 0.59-8.58 1.59-4.91 2.18-9.12 5.16-13.5 7.94-4.21 2.78-7.89 6.16-12.45 8.94-3.15 1.99-6.66 3.97-10.51 5.56-2.28 1-4.56 1.19-4.03 4.37 0.17 2.19 1.4 4.37 2.1 6.36 2.45 6.75 1.93 14.9 1.93 23.44 0 11.72 3.68 20.06 8.59 25.43-5.26 7.74-11.92 16.48-12.1 29.59 0 2.39 0.18 4.57 0.53 6.96 0.35 1.98 0.35 4.96 1.05 6.55 0.7 1.39 2.1 1 3.51 1 0.7 0 1.4 0.19 2.1 0.39 9.11 2.59 14.9 8.94 22.08 13.91 4.03 2.78 8.59 5.36 14.38 5.76 6.48 0.4 10.86-2.98 15.6-5.17-0.35 14.11 10.16 16.49 18.75 20.46 4.38 1.99 8.76 3.78 12.62 6.16 2.98 1.79 5.61 4.17 7.89 6.76 1.23 1.39 2.28 3.17 4.38 2.38 2.28-0.99 4.38-3.18 6.49-4.57 6.66-4.57 14.37-7.55 22.78-10.73 5.44-1.98 10.17-4.56 14.02-8.34 3.68-3.57 7.01-8.14 7.72-14.9 9.64-5.36 17.87-13.11 30.49-15.09 1.76-0.2 3.86-0.2 5.44-1 2.28-0.99 1.93-4.17 1.75-7.74-0.35-6.76-1.93-12.12-2.98-17.88-1.4-8.35-1.05-17.68-5.43-22.25 2.63-2.98 4.55-6.56 5.78-10.93 1.58-6.75-0.7-16.88 0-24.83 0.18-2.58 0.53-5.16 0.7-7.74 0.18-2.59 0.18-5.37 0.7-7.75 0.35-1.99 1.58-4.97 1.23-7.15-0.35-1.79-1.75-2.19-3.33-2.78z"/>
	<path class="s1" d="m220.85 65.96c-2.98-1.39-6.13-2.59-8.76-4.37-7.37-4.57-12.97-10.73-23.49-11.13-5.26-0.2-10.87 0.2-13.67 3.78-1.58-4.97-3.51-9.74-6.49-12.92-3.15-3.17-6.83-5.16-11.39-6.95-4.21-1.59-8.59-3.38-12.45-5.56-1.75-1.19-3.33-2.78-5.08-4.17-1.58-1.39-3.68-3.18-5.61-3.58-1.75-0.39-2.8 1.19-4.03 1.99-2.98 2.18-5.61 4.17-9.46 5.36-9.82 3.38-20.86 5.56-27.87 11.72-3.33 2.98-6.84 7.55-4.56 14.5-1.93-1.59-4.21-2.98-6.84-3.37-2.98-0.6-6.13 0.59-8.58 1.59-4.91 2.18-9.12 5.16-13.5 7.94-4.21 2.78-7.89 6.16-12.45 8.94-3.15 1.99-6.66 3.97-10.51 5.56-2.28 1-4.56 1.19-4.03 4.37 0.17 2.19 1.4 4.37 2.1 6.36 2.45 6.75 1.93 14.9 1.93 23.44 0 11.72 3.68 20.06 8.59 25.43-5.26 7.74-11.92 16.48-12.1 29.59 0 2.39 0.18 4.57 0.53 6.96 0.35 1.98 0.35 4.96 1.05 6.55 0.7 1.39 2.1 1 3.51 1 0.7 0 1.4 0.19 2.1 0.39 9.11 2.59 14.9 8.94 22.08 13.91 4.03 2.78 8.59 5.36 14.38 5.76 6.48 0.4 10.86-2.98 15.6-5.17-0.35 14.11 10.16 16.49 18.75 20.46 4.38 1.99 8.76 3.78 12.62 6.16 2.98 1.79 5.61 4.17 7.89 6.76 1.23 1.39 2.28 3.17 4.38 2.38 2.28-0.99 4.38-3.18 6.49-4.57 6.66-4.57 14.37-7.55 22.78-10.73 5.44-1.98 10.17-4.56 14.02-8.34 3.68-3.57 7.01-8.14 7.72-14.9 9.64-5.36 17.87-13.11 30.49-15.09 1.76-0.2 3.86-0.2 5.44-1 2.28-0.99 1.93-4.17 1.75-7.74-0.35-6.76-1.93-12.12-2.98-17.88-1.4-8.35-1.05-17.68-5.43-22.25 2.63-2.98 4.55-6.56 5.78-10.93 1.58-6.75-0.7-16.88 0-24.83 0.18-2.58 0.53-5.16 0.7-7.74 0.18-2.59 0.18-5.37 0.7-7.75 0.35-1.99 1.58-4.97 1.23-7.15-0.35-1.79-1.75-2.19-3.33-2.78zm-26.64-0.8c-1.23 7.55 2.8 13.11 3.15 20.26 0.35 7.35-2.1 13.31-4.38 18.48-2.8-2.19-5.61-4.77-9.46-5.37 3.68 1.39 6.48 3.98 8.06 7.75-1.05 2.19-2.45 4.17-3.68 6.56-1.05 2.18-1.93 4.76-3.33 6.75-14.2-1.79-25.24 4.77-33.83 11.52-7.01 5.56-12.45 12.72-16.48 20.66-0.52-0.59-1.05-1.39-1.57-1.99 2.1-6.15 5.43-11.12 8.76-15.89 3.33-4.76 7.36-9.13 11.57-12.91 4.2-3.77 9.29-7.15 13.67-10.92 2.1-1.79 4.38-3.78 6.13-6.16 0.88-1.19 1.41-2.78 1.76-4.37 0.52-1.59 1.05-3.18 0.87-4.97-0.17 1.59-1.57 2.78-2.28 3.97 0.18-1.39 0.18-3.17 0-4.96-0.35 0.99-0.7 2.18-1.05 3.18 0-1.39 0.18-3.78-0.35-5.17 1.4-0.99 3.33-0.4 4.74-1.19 2.27-1.39 0.17-6.36 0-8.94 1.75 2.78 3.15 6.95 2.62 11.72 1.23-4.17 0.18-10.53-1.4-13.71 1.23 1.59 2.46 4.18 3.16 6.36-0.18-4.37-1.76-7.94-3.51-10.73 1.93 1 3.33 2.59 4.56 4.37-0.88-1.98-1.93-3.57-2.98-5.36 1.58 0.8 2.98 2.19 4.21 3.58-1.06-2.39-2.46-4.37-3.51-6.36 1.75 0.2 2.8 1.39 3.86 2.58-0.53-1.19-1.06-2.18-1.76-2.98 1.93 0 2.98 1 4.21 1.79-0.88-1.39-2.1-2.38-2.8-4.17 1.22 0.2 2.1 0.79 2.98 1.39-0.53-0.99-1.58-1.99-2.11-2.78 1.4 0.2 2.46 0.4 3.51 0.99-1.58-1.59-4.21-3.18-7.01-1.98 0.17 0.39 0.17 0.79 0.35 1.19-0.88 0.39-1.41-0.4-2.11-0.4 0.35 0.79 1.06 0.79 1.23 1.79-0.88-0.4-2.1-0.6-3.15-0.6 0 0.6 0.7 0.99 0.87 1.59-1.05 0.2-1.58-0.4-2.28-0.6 0 0.6 0.7 1.2 0.88 2.19-1.23-0.6-2.45-1.59-4.03-1.79 2.45-3.18 6.66-5.96 11.04-7.75-3.68 0.4-6.83 2.79-9.81 4.18 1.57-1.79 3.5-3.18 5.6-4.37-3.15 0.99-6.13 2.58-8.76 4.57 1.05-1.59 2.8-2.79 4.38-3.98-2.28 0.8-4.55 2.19-6.48 3.58-0.35 0-0.53-0.4-0.7-0.6 4.03-3.97 14.02-7.55 19.98-3.97-3.51 0.99-6.31 2.78-8.94 4.77 3.85-2.39 11.57-3.78 15.6-0.8zm-30.32 78.07c1.75-1.99 2.8-4.57 4.03-7.15-1.76 2.18-3.86 3.97-5.96 5.76-0.7 0.59-1.41 1.39-2.28 1.39 1.23-1.99 3.5-3.97 4.38-6.95-2.1 2.58-4.73 4.76-7.54 6.55 0.88-1.79 2.28-3.37 2.98-5.56-4.55 4.57-8.94 10.13-14.37 14.1 1.05-1.78 2.63-3.77 3.86-5.36-1.76 1.19-3.68 2.78-5.44 4.37 1.23-2.38 3.51-4.17 5.09-6.55-2.28 1.58-4.39 3.97-6.66 5.76 1.92-3.18 4.03-5.96 6.31-8.74-2.11 1.78-4.04 3.57-5.96 5.56 1.92-3.38 5.08-6.36 7.71-9.34-2.81 1.79-5.08 4.17-7.54 6.36 8.94-9.54 18.58-18.87 34.88-21.26-0.35 11.13-5.08 17.88-10.34 24.04-0.35-0.2-0.7-0.6-1.05-0.8 1.93-2.18 3.5-5.36 4.91-8.34 1.22-2.38 2.45-4.96 2.8-7.75-2.1 6.36-5.43 10.73-9.81 13.91zm-36.29 11.52c-3.68-2.78-6.83-6.36-11.74-7.75 2.63 1.79 5.61 3.78 7.89 6.16-2.11-0.99-4.39-2.98-7.01-3.77 2.98 2.18 6.31 4.37 9.11 6.95-4.03-1.79-7.54-4.77-11.92-6.16 3.16 2.19 6.31 4.97 9.47 7.35-4.39-1.39-7.89-4.57-12.45-6.16 2.81 2.39 5.96 4.77 8.94 7.16-6.84-2.19-12.97-5.96-19.81-8.55 5.61 2.98 10.52 6.56 15.95 9.74-12.62-3.38-22.43-10.93-30.84-19.47 15.07-1.19 26.64 1.79 36.8 6.95-3.68-2.58-7.18-6.35-11.92-7.94-5.08-1.59-10.86-2.39-17.52-2.39-8.77 0-18.58 1.79-23.49-3.18 0.7-3.77 0.7-7.74 2.45-10.33 1.41-2.38 4.04-4.96 6.66-6.15-1.4-0.4-2.62 0.99-3.68 1.78-3.5 2.59-6.66 6.76-7.71 11.92-3.5-4.96-5.43-11.52-6.83-19.07-1.23-7.35-3.33-14.89-4.56-21.85 4.56-1.59 9.11 0.2 11.57 2.78-2.28-2.58-4.39-5.56-8.07-6.55 6.49-7.15 14.73-12.12 25.24-15.3-4.9 2.98-11.04 4.97-14.89 9.14 2.45-1.59 5.08-2.98 8.23-3.77-1.75 1.19-3.5 2.18-4.9 3.57 1.4-0.99 3.68-1.79 5.95-2.18-0.87 1.19-2.97 2.18-4.2 3.57 1.58-0.4 2.98-1.59 4.91-1.79-0.88 1.79-1.93 3.38-2.98 4.77 1.05-0.79 2.27-1.98 3.5-2.78-1.58 3.18-1.75 8.94-0.7 13.31 0-2.38 0.35-4.97 0.88-6.95 0 3.77 0.35 7.15 2.45 8.74 1.58 1.19 3.86 0.99 5.96 1.79-0.53 4.56-0.35 11.12 1.05 15.09-2.1-2.58-3.15-6.95-3.68-11.52-0.35 2.78 0.18 6.16 0.53 8.74-1.23-1.19-2.46-4.17-2.98-6.95-0.35 2.38 0.52 4.57 1.05 6.55-1.23-0.99-2.81-3.77-3.51-6.35 0 1.79 0.7 3.77 1.23 5.36-1.58-0.99-2.45-3.38-3.33-5.56 0 1.39 0.53 2.78 0.88 3.97-1.06-1.19-1.76-2.98-2.63-4.37 0.35 4.17 2.98 6.95 5.08 9.54 2.1 2.58 4.56 5.16 7.19 6.95 5.61 3.77 12.27 6.16 17.88 9.73 5.78 3.58 10.69 7.95 15.42 12.72 4.73 4.76 9.29 9.73 12.97 15.89-1.05 0.4-1.93 0.79-2.98 0.99-1.93-3.18-4.03-6.36-6.84-8.54 0.36 1.39 1.23 2.78 1.93 4.17zm-4.2-48.87c0.35-0.79 1.22-1.39 1.57-2.18-1.57 0.6-2.63 1.79-4.55 2.18 0.7-0.99 2.27-2.38 2.98-3.57-1.23 0.4-2.28 1.19-3.68 1.39 1.05-1.39 2.8-2.98 4.03-4.57-1.76 0.79-3.51 1.59-5.61 1.99 2.28-1.59 4.55-3.38 6.66-5.37-2.63 1.2-5.08 2.78-8.42 3.38 1.58-2.58 5.09-3.77 8.07-5.36 3.15-1.59 6.31-2.78 9.11-4.37-2.45 0.79-4.91 1.98-7.53 2.78-2.63 0.99-5.61 1.39-8.59 1.98-1.93 0.4-2.81 2.39-4.03 3.38 0.52-1.19 1.4-2.78 2.27-3.77-1.57 0.39-1.92 2.38-3.33 3.18-1.22 0.59-3.15 0-4.03-0.4-1.05-0.6-1.93-1.59-2.63-2.19 4.91 0.2 9.29-1.39 13.67-2.78 3.33-0.99 6.49-1.98 9.47-3.57 3.15-1.39 5.96-2.59 8.24-4.77 1.05-0.99 1.93-2.19 3.15-3.18 1.23-0.99 2.63-2.18 3.33-3.18 2.28-3.97 3.68-14.7-2.45-15.1-2.98-0.19-4.38 1.79-6.49 2.39 2.46 0 5.26-0.8 7.01 0.79 1.76 1.39 3.16 4.77 2.11 8.15 0.17-3.18-1.05-5.76-2.98-6.76 0.7 1.79 0.35 4.57 0 6.56-0.35-2.38-0.35-5.36-1.58-6.36 0.53 1.19 0.7 3.18 0.53 4.77-0.53-1.59-0.88-3.58-2.11-4.17 0.53 0.99 0.88 3.38 0.35 4.77 0-1.99-1.05-2.79-2.1-3.38-0.88-1.79-2.28-2.78-3.86-3.58 1.41-1.59 2.98-3.37 5.09-4.57 1.75-0.99 5.43-1.39 7.18-0.19 0.71 0.59 1.23 2.18 1.76 2.98 0.52 0.79 1.4 1.98 1.92 2.78 1.41 1.59 3.16 3.37 3.51 5.96 0.18 1.98-1.4 3.97-2.45 5.16-1.41 1.39-2.81 2.38-4.21 3.38-1.4 1.19-2.63 2.38-4.03 3.77-1.58 1.59-3.33 2.58-5.08 3.97 5.25-2.58 11.39-4.76 15.24-8.74 0.88 1.99 1.23 4.18 1.76 6.56-7.36 9.93-16.83 17.48-23.67 27.81 1.58-4.57 4.56-8.14 7.02-11.92-2.11 1.79-4.39 4.37-6.66 6.16 0.87-1.59 2.45-3.38 3.33-5.17-2.46 1.79-4.21 3.78-6.66 4.97 1.22-2.18 3.68-4.17 4.73-6.75-2.28 1.78-4.56 3.57-7.36 4.76zm-20.51-17.08c-2.81-3.77-2.46-11.72-1.23-16.69-1.75 3.98-2.45 10.53-1.4 16.49-1.4-1.39-1.75-5.16-1.75-8.34 0-2.98 0.87-5.96 1.75-8.74 0.7-2.39 1.75-5.36 3.15-7.15 1.58-1.99 3.86-3.18 5.61-4.77 1.93-1.59 3.51-3.77 5.61-4.97 0.35-0.19 0.88-0.39 1.4-0.19 2.11 0.19 3.86 2.97 5.26 4.37 1.76 1.78 3.33 3.17 5.09 4.56-9.64 0-18.76 3.58-21.04 12.32-0.17 0.99-0.7 3.18-0.52 3.97 0.17 0.6 0.87 0.6 1.4 0.8 2.1 1.39 3.5 4.17 4.56 6.95-0.53-0.2-1.23-1.19-1.76-1.79 0.18 0.8 0.53 1.39 0.88 2.19-0.7-0.2-1.58-1.59-1.93-2.78 0.18 1.19 0.53 2.58 0.88 3.57-1.58-1.19-2.63-3.57-3.51-5.96 0.18 2.19 1.4 4.17 1.93 6.16-2.28-1.59-3.15-4.77-3.86-8.14 0 3.17 1.06 5.76 1.76 8.34-2.28-2.78-3.51-7.75-2.98-13.11-0.7 3.57 0 9.14 0.7 12.91zm46.27-29.2c-0.7 0.2-1.23 0.4-1.93 0.6-0.35-1-0.87-1.79-1.4-2.39 0.7 0 1.23 0.2 1.93 0-1.93-1.39-3.51-3.37-6.66-3.18-2.28 0.2-4.91 0.6-7.54 0.8q2.89 0.3 5.79 1.19c-2.11 0.6-4.74-0.2-6.84 0.4 0.88 0.79 2.98 0.39 4.03 0.79-1.4 0.6-3.68 0.6-5.26 0.4 0.88 0.6 2.11 0.6 2.98 0.99-0.87 0.2-2.28 0-2.98 0.6 0.35 0.2 1.06 0.2 1.41 0.4-0.88 0.59-1.76 1.19-2.46 1.78-0.87-0.99-1.93-1.39-2.98-2.18 0.88-0.2 2.11 0 3.16 0-1.58-0.99-4.21-0.6-5.61-1.79 1.93-0.4 3.33 0 5.08 0.2-2.28-0.8-4.38-1.79-7.01-1.99 1.05-0.2 2.63-0.39 3.68-0.2-1.23-0.39-2.8-0.59-4.38-0.99 1.05-0.59 2.98-0.59 4.38-0.79-1.93-0.2-3.86-0.4-5.61-0.8 1.05-0.4 2.46-0.59 3.68-0.79-0.17-0.6-0.87-0.2-1.22-0.2-1.23 0-2.81-0.2-4.04-0.2 1.76-0.79 4.56-0.99 6.67-0.79-2.28-0.6-4.74-1-7.72-0.8 2.11-1.19 5.44-0.99 7.89-0.79q-3.94-1.2-8.94-0.6c-6.83 0.79-8.94 7.15-13.5 10.33 3.69-6.56 8.94-12.51 18.06-12.91 4.56-0.2 8.59 1.59 12.44 2.78 4.39 1.39 8.77 2.98 14.03 2.58 0.87 2.19 0.52 5.17 0.87 7.55zm-15.77 20.86c0.17-0.8 0.87-1.39 1.22-2.19-0.52 0.4-1.05 1-1.75 1.39 0.53-0.99 1.23-2.18 1.4-3.57-0.17 0.2-0.52 0.79-0.87 0.99-2.46 1.79-5.96 4.77-9.99 3.58 1.75 0.59 3.85 0.99 6.13 0.79-1.4 1.19-3.5 1.79-5.78 1.99 1.22 0.39 3.15 0.2 4.55 0-1.92 1.19-4.38 1.98-7.53 1.98 1.57 0.2 2.8 0.6 4.55 0.6-2.27 0.99-4.73 1.79-7.36 2.58-0.87-4.57-1.93-8.74-3.15-12.71 3.5 1.79 7.53 3.97 12.97 3.18 3.68-0.6 5.61-3.18 7.18-6.36 0.18 2.58 0.88 4.37 1.41 6.56-0.7 0.99-1.76 1.78-2.63 2.58 0.17-1 1.05-1.79 1.4-2.78-0.53 0.39-1.05 0.99-1.75 1.39zm1.22-10.53c-0.17 3.18-4.38 5.56-7.18 6.16h-1.4c2.27-1 4.03-2.39 5.6-4.17-1.4 0.99-3.33 2.18-5.6 2.58 0.87-0.6 1.92-1.19 2.8-1.99-2.1 0.8-4.73 1.59-7.54 1.79 1.93-0.8 3.86-1.39 5.26-2.58-1.75 1.19-4.73 1.59-7.54 1.39 1.76-1 4.04-1.59 5.61-2.78-1.4 0.79-3.85 0.79-5.78 1.19 1.05-0.99 2.63-1.39 4.21-1.99-4.21-0.2-7.89 1.19-11.05 2.39-0.52 0.19-0.52 0.59-0.87 0.79-1.41 1.39-2.46 3.38-2.81 5.76 0.7-0.79 1.23-1.79 2.11-2.18-0.36 0.59-0.71 1.19-0.88 2.18 0.52-0.4 1.23-1.19 1.93-1.39-0.35 0.99-1.05 1.79-1.58 2.78 0.7-0.59 1.4-1.19 2.63-1.39-0.53 0.99-1.58 1.59-2.1 2.78 0.87-0.2 1.92-1.39 2.8-0.79-0.35 0.79-1.23 1.19-1.58 1.98 0.53 0 1.23-0.59 1.93-0.59 0 0.59-1.4 0.99-1.58 1.98 0.53 0 1.58-0.59 2.28 0-0.35 0.8-1.23 1-1.58 1.59 0.88-0.19 1.93 0 2.63 0-0.52 0.6-1.4 1-1.92 1.59 0.7-0.2 1.75-0.59 2.45 0-0.53 0.6-1.4 0.8-1.75 1.59 0.52 0 1.22-0.4 1.75 0.2-0.18 0.4-0.88 0.4-0.88 0.8 0.18 0.19 0.53 0.19 0.88 0.19-0.7 0.4-1.58 0.4-2.28 0.8 0.18-0.6 0-0.99-0.17-1.59-0.71-1.79-2.11-3.58-3.16-5.17-1.23-1.78-2.63-3.17-3.68-4.56 2.1-9.14 11.39-12.72 22.26-12.72 2.1-0.39 5.96 1.19 5.78 3.38zm4.56 35.36c5.79-6.36 12.27-12.32 17.18-19.87 1.58-2.58 3.33-5.16 3.33-9.13 0-1.39-0.18-3.38-0.88-4.37 0.53 0.99-0.17 2.38-0.7 3.37-0.88-3.18-1.93-5.96-4.03-7.55 1.23 1.59 2.63 5.17 1.75 8.35-0.52-1-0.87-2.39-1.4-3.38 0.53 1.79 0.7 4.57 0.53 6.56-0.53-1.2-0.71-2.59-1.58-3.38 0.52 1.39 1.58 3.97 0.87 5.96 0-1.79-1.92-3.58-2.1-5.37 0-0.59 0.18-1.39 0.35-1.78 0.35-1.39 0.88-2.39 0.7-4.17-0.52-3.98-3.5-5.57-5.08-8.35 15.07 0.6 24.89 7.95 26.47 25.23-2.28 0-3.68 0.99-5.09 1.99-2.45-1.99-4.73-5.37-9.46-3.78 4.03-0.2 5.78 2.19 7.01 5.37-2.98 3.17-6.13 5.76-8.94 9.13-0.88 1-1.58 2.59-2.63 3.58-2.28 2.38-5.61 3.38-8.59 4.97-2.63 1.39-5.78 3.57-8.06 5.56-5.08 4.37-8.41 9.53-11.04 16.29 3.85-7.55 9.11-13.51 17-17.29 3.86-1.98 8.06-3.37 11.39-5.96 3.33-2.58 5.79-5.36 8.59-8.54 1.05 1.99 2.28 3.98 3.51 5.96-5.96 5.96-13.15 10.53-19.28 16.49-5.96 5.96-11.22 12.51-14.9 20.86 0.87-4.97 2.45-9.54 4.91-13.31-2.63 3.18-4.91 7.15-6.84 11.12 1.05-4.57 3.15-8.54 5.43-12.11-2.63 2.97-4.9 7.35-7.01 11.12 1.23-5.17 3.51-9.93 5.96-14.1-2.98 3.37-5.08 8.14-7.54 12.51 1.93-7.15 5.44-12.91 9.47-17.88-2.98 2.78-5.26 6.36-7.54 9.93-2.28 3.58-4.38 7.35-5.96 11.72 0.18-3.57 1.41-6.35 2.28-9.33-1.22 1.59-2.1 3.97-2.98 5.96 0.35-5.17 2.46-9.14 4.03-13.11-2.8 3.97-4.38 9.13-6.66 13.7-0.35 0-0.87-0.59-1.22-0.99 4.55-13.11 10.69-23.04 18.75-31.98zm-49.25-53.64c0-3.17 0.52-5.16 2.1-6.95 6.66-7.94 20.16-9.93 30.5-13.71 4.38-1.58 7.54-4.56 10.87-6.95 2.63 1.19 5.26 2.78 6.83 5.56 0.53 1.2 1.05 2.79 1.4 4.37 0.53 1.99 1.23 4.18 0.88 6.16 0.53-2.38 0.7-6.16 0-8.94 5.79 3.98 12.97 5.37 18.76 8.55 6.31 3.37 9.99 10.13 11.74 19.07-0.18 0-0.35 0-0.35 0.19-1.93-3.77-4.03-7.15-7.01-9.33 1.22 1.79 2.45 3.77 3.33 5.96-1.93-1.99-4.73-4.37-7.36-5.96 1.4 1.79 3.15 3.37 4.38 5.56-3.33-2.98-7.01-5.56-11.39-7.15 3.33 1.98 6.48 4.77 8.93 7.94-2.45-1.78-5.43-3.57-8.41-4.96 2.81 1.79 5.96 3.97 7.89 6.95-2.81-1.99-6.14-3.57-9.47-4.97 2.63 1.59 5.79 3.38 8.07 5.96-2.63-1.59-5.79-2.98-8.94-4.37 2.28 1.79 5.43 3.38 7.53 5.57-2.1-1-4.55-2.19-7.18-2.98 0.87 0.79 2.28 1.39 3.15 2.18-1.22-0.2-2.98-0.59-4.73-0.4 0.35-3.17 0-8.94-2.28-9.73-0.87-0.2-2.28-0.2-3.5-0.2-3.68-0.4-7.01-1.59-10.35-2.38-5.43-1.59-11.21-4.37-17.7-2.39 3.33-1.59 7.54-2.18 12.1-2.18-4.56-0.8-11.22-0.4-15.25 1.39 2.28-1.39 5.08-2.19 8.06-2.98-7.19 0-12.27 3.18-16.83 6.16 2.11-2.19 4.74-3.98 7.36-5.56-6.13 1.98-11.04 5.96-15.24 10.13 2.45-4.57 7.01-7.75 11.56-10.33-5.78 1.78-11.56 4.57-14.37 9.33 1.23-4.17 4.38-6.35 8.06-8.14-2.27 0.59-4.2 1.79-5.96 3.18 1.23-1.59 2.46-3.78 4.21-4.97-3.15 1.59-6.13 2.38-8.06 5.36-0.88 1.4-2.11 2.39-2.11 4.77 0.88-1.79 2.63-3.18 4.56-3.97-1.75 2.78-4.73 5.56-4.56 10.13 0 0.99 0.71 2.19 0.53 3.18-0.17 0.59-0.88 0.99-1.23 1.19-0.17-2.98-0.52-6.36-0.52-9.34zm0.35 14.7c2.8-4.37 6.83-7.74 12.27-9.33-0.35 1.39-0.53 3.18-0.7 4.76-3.86 4.57-5.61 12.32-4.56 21.06-1.58-2.98-2.8-10.13-1.23-14.1-2.28 3.18-1.22 10.53 0 14.3 1.23 4.17 3.51 8.14 5.79 11.12 4.73 6.16 11.74 9.94 17 15.3 1.23 1.39 2.28 3.18 3.5 4.77 1.23 1.59 2.46 2.98 3.69 4.57-0.71 1.39-1.58 2.78-2.11 4.17-1.58-1.39-2.8-2.98-4.38-4.57 0.53 1.39 1.58 2.78 2.1 4.37-2.1-1.59-4.03-3.78-6.13-5.36 1.4 2.18 2.98 3.97 4.38 6.35-3.15-2.38-6.48-5.56-9.82-7.94 2.46 2.38 5.09 4.96 7.19 7.94-3.85-2.78-7.89-5.96-12.09-8.74 4.03 3.18 8.06 7.15 11.57 11.32-5.26-3.97-10.35-8.14-16.48-11.12 3.5 2.58 7.54 5.36 10.87 8.54-4.39-1.98-8.59-5.16-13.5-6.75 3.86 2.38 7.71 4.57 10.87 7.55-4.03-1.79-7.89-4.37-12.1-6.16 2.98 1.99 6.49 4.17 9.29 6.55-2.45-1.19-4.9-2.38-7.53-3.77-0.71-0.4-1.93-0.79-2.46-1.19-0.87-0.8-1.58-2.78-2.1-4.17-1.75-4.18-3.16-10.73-2.1-16.69 9.99 3.58 18.75 8.74 25.41 16.49 0.35-1-0.53-1.59-1.05-2.19-6.49-8.54-14.55-15.09-25.59-17.88-1.58-0.39-3.51-0.59-5.08-1.19-0.88-0.39-1.41-1.19-1.58-2.58-0.18-0.79-0.53-2.18-0.35-2.78 0-0.99 2.1-3.18 2.8-3.77 1.58-1.4 3.68-2.59 5.79-1.99-2.81-1.59-7.54 0.2-8.77 2.18 0-6.15 2.46-10.33 4.91-14.3 0-1.79 0.88-3.57 2.28-4.77zm-51.36 43.11c0-2.19 0.18-4.57-0.17-6.75-0.35-3.98-1.05-8.15-1.76-12.12-0.7-3.97-1.22-7.95-2.27-11.32 4.9-2.39 13.84-4.18 19.28-1.99-2.28-1.39-5.26-2.58-8.24-3.18 7.36-5.16 14.9-11.12 23.31-15.89 2.98-1.79 6.31-3.97 10.52-3.97 4.03 0 5.96 3.17 8.94 4.76 0 0.4 0.17 0.6 0.17 0.8-2.8-1.39-6.48-4.17-10.87-3.78-2.63 0.2-4.2 1.39-6.31 2.39 2.63-1 6.66-1.79 9.12-0.2-3.16-0.2-6.49 0.6-8.77 1.79 1.76-0.4 4.39-1 6.14-0.2-3.68 0.4-6.14 1.79-8.76 3.18 3.5-0.8 8.23-1.2 11.39 0-5.79 0.2-10.34 1.98-14.2 4.37 3.68-1.39 9.12-2.19 13.5-1.19-2.28 0.39-4.21 0.59-6.14 0.99-4.91 1.19-8.41 5.36-11.92 8.34 3.86-3.18 8.94-4.77 14.9-5.76-4.56 1.99-8.59 4.37-12.27 7.15-3.68 2.78-7.18 5.76-9.64 9.74-0.7 0.39-1.4 0.99-2.28 1.39-1.75 0.99 0 2.98 0.88 3.77 1.58 1.99 2.45 4.17 2.98 7.75 0.7 4.77 0.35 9.14 1.05 13.9-1.75-4.76-1.58-11.92-3.5-16.48 2.27 6.35-0.18 16.68 3.15 22.04-1.4-1.58-2.45-4.37-3.5-6.75 0.17 3.18 1.75 5.96 2.62 8.94-1.92-1.39-3.33-4.57-4.55-7.35 0 2.98 1.4 5.56 2.28 8.14-1.93-1.39-3.16-4.76-4.74-6.95 0.7 2.78 1.58 5.37 2.63 7.95-2.1-1.79-3.68-5.56-5.26-8.54 0.71 3.57 2.11 6.95 3.51 9.73-3.16-2.78-5.08-7.55-6.66-12.52 0.17 4.38 1.75 7.95 2.98 11.53-3.33-3.78-4.38-11.33-5.61-17.88 0.18 11.12 2.1 21.05 7.54 25.82-0.53 0.6-0.88 1.19-1.58 1.79-4.91-5.16-7.71-13.31-7.89-23.44zm35.58 86.01c-4.9-0.99-8.94-3.37-12.44-5.96-5.26-3.97-10.34-8.94-16.83-11.72-2.63-0.99-5.26-2.18-8.41-1.98 2.63-6.16 7.01-10.53 13.67-12.52-6.13 1-10.87 4.37-14.37 8.35-2.28-15.1 4.2-25.43 10.16-33.58 0.7-0.99 1.41-2.18 2.28-3.17 3.33-3.58 7.54-6.56 12.97-7.75 0 0.2 0.18 0.4 0.18 0.4-10.52 6.35-20.51 13.11-21.91 28.8 1.23-4.57 2.98-8.34 5.78-11.32-1.57 3.37-3.33 6.55-4.38 10.33 1.23-2.39 2.63-5.17 4.56-7.35 0 0.99 0.35 1.59 0.52 2.38 0.35-1.39 0.53-2.98 1.06-3.97 0.35 1.59 0.52 2.98 1.22 4.17-0.35-0.99 0-2.98 0.18-4.37 0.52 1.79 1.05 3.38 1.93 4.77-0.18-1.39-0.35-3.38-0.18-4.77q1.32 4.47 3.68 7.75c-0.88-1.99-1.93-4.57-1.93-8.15 1.76 5.17 4.03 9.54 7.36 12.91-1.4-2.58-2.97-5.16-3.85-8.54 1.58 2.19 3.33 4.17 4.73 6.56 1.4 2.38 2.46 5.16 4.03 7.35-1.93-4.97-3.85-10.53-6.13-15.5 4.73 3.38 5.61 11.13 8.24 16.69 2.63 5.76 5.96 10.73 9.81 14.7-2.63-1.39-4.91-3.78-7.01-5.96 1.23 3.18 3.33 5.16 5.43 7.15 2.11 1.99 4.74 3.58 7.54 4.57-2.28 0.4-4.91 0.2-6.66-0.4 1.93 1.19 4.38 2.19 6.84 2.58-2.11 0.8-4.74 1.2-7.19 1.79 2.28 0.8 5.43 0.4 8.24 0.4-4.21 1.59-10.17 2.38-14.73 1.19 4.04 1.79 10.52 2.39 15.43 0.6-1.93 1.19-4.21 1.98-7.01 2.38 4.56 0.6 8.59-1.19 12.09-2.58-4.38 2.38-9.29 4.77-14.9 3.77zm1.23-20.66c-0.35-4.37 1.4-6.55 2.63-9.13-1.4 2.38-3.33 4.17-4.21 7.15-3.5-4.57-5.96-9.93-8.06-16.89-1.05-3.18-2.28-6.35-4.21-8.34-1.92-1.99-4.9-3.38-5.25-6.75-0.36-2.59 1.75-4.57 2.8-5.96 1.23-1.39 2.45-2.59 4.56-2.98 0.17 0.2 0.17 0.39 0.35 0.59-0.88 1.19-2.28 1.99-2.46 3.98-0.52-0.8 0-1.99 0.35-2.39-1.05 0.2-2.45 1.39-2.8 2.19-1.23 2.58 0.7 5.56 1.75 7.35 0.18-1.59 0.53-2.78 0.7-4.17 0.35 1.19 0.35 2.97 0.88 3.77-0.18-2.58 0.18-4.97 1.4-5.96 0.35 1.99 0.53 4.17 1.58 5.36-0.18-1.78-0.18-3.57 0.35-4.76 0.53 2.18 0.88 4.76 2.28 5.96-0.35-1.4-0.7-3.38-0.53-4.97 0.88 2.18 1.76 4.57 3.16 6.16-0.35-1.39-0.7-3.18-0.53-4.77 1.23 1.99 1.93 4.57 3.51 6.16-0.53-1.59-1.58-3.98-1.23-6.36 0.7 1.99 1.93 3.58 3.16 5.36 0.87 1.59 1.57 3.18 2.98 3.98-1.23-2.19-2.81-4.17-2.98-7.75 2.27 3.77 4.73 7.35 7.71 10.13-1.58-2.38-3.33-4.96-4.38-8.14q5.25 7.74 12.62 13.11c-3.51-3.38-7.02-7.55-9.29-12.72 4.2 7.35 11.04 12.12 18.05 16.09-4.73-3.77-9.82-7.54-12.97-13.5 9.46 8.54 20.16 16.29 35.58 17.48 0.53 0.59 0.7 1.79 1.23 2.78 0-0.6-0.18-1.99-0.35-2.78 5.43-0.4 9.64-1.59 13.67-3.58 1.4-0.59 2.45-1.59 4.03-1.79 7.54-0.39 14.02 1.59 15.95 8.55-0.7-4.97-3.86-7.75-6.84-9.94 2.63 0.4 4.56 1.39 6.31 2.98-0.35-2.38-2.1-3.37-2.98-4.76 2.28 0.39 3.69 1.58 4.91 3.17-0.7-2.18-2.1-3.37-3.33-4.76 2.98 0.99 5.26 2.78 7.54 4.76-0.88-2.18-2.63-3.77-3.68-5.36 2.63 1.59 5.08 3.18 6.66 6.16 0-2.39-1.75-3.97-2.63-5.76 2.1 0.99 3.68 3.18 4.73 5.76-0.52-5.56-4.2-10.93-9.46-10.53-2.63 0.2-4.56 1.99-6.49 3.38-1.75 1.19-3.68 1.39-5.78 2.18 2.98-2.38 5.43-4.57 8.76-6.75 1.05-0.6 2.28-1.39 3.51-1.59 2.98-0.4 5.78 2.38 7.18 4.17 1.58 1.79 2.98 4.37 4.39 6.56 1.22 2.18 2.62 5.36 2.62 8.74 0 0.79 0 1.78-0.35 2.18-0.52 0.99-3.68 1.79-5.08 2.39-4.73 2.58-8.24 6.55-12.09 10.13-2.63 2.58-4.74 5.36-7.19 7.54-2.98 2.79-6.84 4.77-12.44 4.77-2.63 0-4.91-0.79-7.19-1.39-2.8-6.95-2.1-18.27-6.84-22.84 1.93 3.77 4.04 9.14 3.86 15.09 0 2.19-0.7 4.18-0.53 6.76-8.23-2.19-17.7-3.78-26.46-5.56-8.94-2.19-18.41-2.78-23.14-9.94zm88.34 36.55c-9.29 3.58-18.58 6.76-25.59 12.52 0.35-3.38 0.35-7.35 0.35-11.12-0.35 4.76-1.75 8.54-2.8 12.91-1.06 1.59-2.28-0.6-3.33-1.59-2.28-2.19-4.56-4.57-7.19-6.16-3.51-2.18-7.71-4.17-11.39-5.76-3.86-1.79-8.07-3.18-11.75-5.36-3.5-1.99-7.18-4.97-7.53-10.73-0.18-3.18 0.52-6.16 0.7-9.14 0.35 0 0.52 0 0.87 0.2-0.7 4.17-0.17 9.34 1.76 12.12-0.71-0.2-1.41-1.19-2.11-1.59 0.88 1.59 1.23 3.77 2.46 5.16 1.57 1.79 4.2 2.98 6.66 3.58-1.76-1.19-3.68-2.19-4.74-4.17 0.88 0.39 1.76 1.19 2.81 1.79-1.4-1.59-3.33-3.18-4.03-5.96 2.1 3.37 5.08 5.76 9.11 6.75-3.33-1.99-6.31-4.17-7.36-8.74 1.93 2.18 3.86 5.16 6.66 6.36-0.88-1.2-2.45-2.39-3.33-3.98 1.58 1.19 3.68 2.39 5.61 3.18-1.75-1.39-3.86-3.18-4.91-5.56 1.93 1.19 4.38 1.79 6.66 2.18-2.1-0.99-4.2-2.18-5.61-3.97 2.28 0.6 4.39 1.59 7.19 1.59-1.58-0.79-3.33-1.59-4.91-2.38 3.33 0.2 7.19 0.59 10.87 0.59-4.91-0.99-9.47-2.38-13.32-4.76 10.16 1.19 19.1 4.37 28.74 6.35 1.93 2.19 2.98 5.37 3.51 9.34 0.53-3.38-1.05-6.16-1.4-9.34 6.48-0.2 10.86-2.38 14.19-5.76-1.92 2.98-4.55 4.97-7.36 6.76 5.96-2.59 10.87-6.56 14.55-11.92-1.75 3.77-4.38 7.15-7.19 9.93 2.98-1.39 5.44-3.38 7.89-5.17-0.35 1.39-1.4 2.39-2.1 3.38 1.58-0.79 2.98-2.18 4.38-3.38 0 1.39-1.05 2.39-1.58 3.38 1.41-0.79 2.46-1.59 3.86-2.38 0 1.78-1.05 2.78-1.75 3.77 1.22-0.79 3.15-1.59 4.38-2.38-0.18 1.59-1.05 2.38-1.58 3.37 1.23-0.59 2.28-1.39 3.51-1.78-1.23 3.18-4.03 4.76-6.31 6.75 2.98-1.19 5.43-3.38 8.76-4.37-1.58 2.38-3.68 4.17-5.43 6.36 3.15-2.19 6.48-4.17 9.81-6.16-2.98 3.18-6.31 5.96-9.64 8.94 3.86-1.79 7.89-3.97 11.22-6.36-3.33 5.17-9.64 7.95-15.42 10.73 7.71-1.79 14.19-5.96 19.1-10.93 1.23-1.39 2.28-3.18 2.63-5.36 0.53-0.2 1.05-0.4 1.4-0.6-2.98 10.33-10.87 15.5-19.98 18.87zm54.51-61.58c1.05 6.16 2.63 12.52 3.33 19.07-2.1-2.18-4.03-4.37-6.13-6.55 2.1 2.78 4.73 5.56 5.78 9.73-13.67 1.39-22.96 7.95-32.6 14.11-2.98 1.98-6.66 4.17-10.87 4.76-9.64 1.2-13.84-5.56-17.7-12.11 0.17 0 0.35-0.4 0.53-0.4 3.68 5.16 8.58 11.12 16.47 10.53 3.51-0.2 5.44-1.79 7.89-3.18-1.4 0.2-2.81 0.99-4.56 1.19-3.5 0.2-6.66-1.19-9.29-2.58-2.8-1.39-4.91-3.58-6.66-5.76 3.33 3.57 8.77 5.96 14.72 6.36-4.03-1-7.18-2.98-9.81-5.96 1.23 0.39 2.28 1.58 3.68 1.78-1.23-1.39-3.15-2.98-4.03-5.16 1.05 0.59 1.93 1.39 3.15 1.79-0.52-1-1.4-1.79-1.4-3.58 0.7 0.2 1.75 1.19 2.46 1.59-0.71-0.79-1.23-2.38-1.06-4.37 0.53 0.79 1.06 1.39 1.93 1.79-0.35-0.4-0.17-1.79-0.35-2.58 1.4-0.8 1.93-3.18 1.93-5.17 0-7.15-4.03-11.72-6.31-15.69 1.93-1 4.73-1.79 7.54-1.39-1.41-0.8-3.86-0.6-5.44-1.19 3.16-1.59 7.89-1.79 11.05-0.8-1.23-0.99-2.98-0.99-4.56-1.59-1.58-0.4-3.16-0.99-4.73-1.19 3.33-0.99 7.71-0.2 11.21 0.4 8.07 1.39 15.25 4.96 19.98 9.93-5.95-6.75-14.02-11.52-23.83-13.71 2.63-0.2 5.26 0.2 7.53 0.6-2.8-1.19-5.96-2.39-9.29-2.98 1.23-0.6 3.16-0.6 4.74-0.6-1.58-1.19-3.86-1.39-5.96-1.98 0.52-0.8 1.93-0.6 2.98-1-0.7-0.39-1.41-0.59-2.28-0.59 0.17-0.4 0.35-0.8 0.35-1.39 1.05-0.4 2.28-0.8 3.68-0.8-0.88-0.4-2.28-0.2-3.33-0.4 1.93-1.19 5.26-1.19 7.54-1.98-1.76-0.4-3.68-0.4-5.61-0.6 3.15-0.99 7.18-1.19 10.69-1.59-2.28-0.59-4.91-0.59-7.36-0.79 4.73-1.19 10.87-0.99 15.6-0.6-4.56-1.39-10.34-1.39-15.43-1.98 9.29-1.59 18.41-0.2 24.19 3.57-5.26-4.37-12.79-5.96-20.86-6.75 0.18-1 1.23-0.6 1.76-0.6 2.27-0.2 4.73-0.4 6.83-0.2 8.24 1.2 14.9 4.57 18.76 11.33 2.28 5.16 1.92 12.71 3.15 19.26zm0.88-64.75c-1.4-0.8-3.16-1.39-5.26-1 1.93 0.8 3.68 1.79 5.08 3.18-0.7 5.36-0.7 11.92 0 17.88 1.05 9.14-1.4 14.9-5.08 19.67-2.45-2.39-5.08-4.57-8.24-5.96 0-0.6 0.35-1 0.18-1.59-0.88 0-1.05 1.39-2.11 0.99 0.18-0.79 1.06-1.59 1.06-2.98-0.88 0.6-2.11 1.39-2.98 2.19 0.52-1.2 1.22-2.39 1.57-3.78-1.05 0.99-1.75 2.39-3.15 2.98 0.7-1.39 1.23-2.98 1.75-4.37-1.05 0.99-1.93 2.58-3.5 3.18 1.05-1.99 1.75-3.97 2.62-5.96-1.22 1.39-2.45 2.98-4.03 3.97 1.41-2.98 2.63-5.96 3.68-9.33-1.57 2.98-3.5 5.96-5.96 7.94 1.58-4.37 4.39-8.14 4.91-13.51-1.75 5.37-4.91 9.54-8.24 13.31 2.11-3.37 4.39-7.15 5.79-11.72 1.4-4.37 2.8-9.33 2.45-14.89-0.35-6.76-3.15-10.93-3.33-17.68 1.75 3.37 2.63 7.94 4.03 11.52-1.22-3.38-0.7-9.34-1.92-13.11 0.35 0.2 1.57 0.79 1.92 1.59-0.35-1.39-1.22-2.79-1.57-3.58 1.75 0.79 3.5 1.59 4.9 2.78-2.27-2.78-5.08-4.57-8.23-6.36 4.03 1 7.36 3.58 10.51 6.16-2.28-3.18-5.78-5.76-8.76-7.55 4.91 2.19 8.59 5.57 13.49 7.55-8.41-4.77-15.07-13.31-28.21-11.92-1.23 0.2-2.46 0.4-3.34 0.8-1.57 0.4-2.27 1.39-4.03 1.98 0-0.39-0.17-0.99 0-1.19 2.63-2.18 6.49-2.98 10.87-2.98 8.06 0 13.15 3.18 18.4 6.96 5.26 3.57 10.35 6.75 16.66 9.13-1.06 4.97-1.23 10.53-1.93 15.7z"/>
</svg>